<?xml version="1.0" standalone="no"?>
<!DOCTYPE svg PUBLIC "-//W3C//DTD SVG 20010904//EN"
 "http://www.w3.org/TR/2001/REC-SVG-20010904/DTD/svg10.dtd">
<svg version="1.0" xmlns="http://www.w3.org/2000/svg"
 width="512.000000pt" height="512.000000pt" viewBox="0 0 512.000000 512.000000"
 preserveAspectRatio="xMidYMid meet">
<metadata>
Created by potrace 1.11, written by Peter Selinger 2001-2013
</metadata>
<g transform="translate(0.000000,512.000000) scale(0.100000,-0.100000)"
fill="#000000" stroke="none">
<path d="M10 2560 l0 -2550 2550 0 2550 0 0 2550 0 2550 -2550 0 -2550 0 0
-2550z m3790 1379 l0 -251 -84 -91 c-227 -247 -732 -884 -973 -1227 -220 -316
-543 -810 -543 -834 0 -3 375 -7 833 -8 l832 -3 3 -307 2 -308 -1305 0 -1305
0 0 210 c0 196 2 214 21 253 50 97 222 377 364 592 84 127 214 325 290 440 76
116 176 262 223 325 108 146 463 603 570 735 l82 100 -730 3 -730 2 0 310 0
310 1225 0 1225 0 0 -251z"/>
</g>
</svg>
