<?xml version="1.0" standalone="no"?>
<!DOCTYPE svg PUBLIC "-//W3C//DTD SVG 20010904//EN"
 "http://www.w3.org/TR/2001/REC-SVG-20010904/DTD/svg10.dtd">
<svg version="1.0" xmlns="http://www.w3.org/2000/svg"
 width="300.000000pt" height="300.000000pt" viewBox="0 0 300.000000 300.000000"
 preserveAspectRatio="xMidYMid meet">
<metadata>
Created by potrace 1.14, written by Peter Selinger 2001-2017
</metadata>
<g transform="translate(0.000000,300.000000) scale(0.100000,-0.100000)"
fill="#000000" stroke="none">
<path d="M1085 2989 c-616 -49 -944 -319 -1045 -859 -29 -153 -40 -329 -40
-630 0 -410 24 -628 88 -820 142 -420 455 -626 1016 -670 166 -13 626 -13 792
0 561 44 874 250 1016 670 64 192 88 410 88 820 0 410 -24 628 -88 820 -142
420 -455 626 -1016 670 -148 12 -663 11 -811 -1z m812 -1018 c35 -22 48 -50
39 -86 -3 -13 -137 -192 -296 -397 l-290 -373 253 -2 c164 -2 260 -7 274 -14
49 -26 52 -102 6 -139 -25 -19 -42 -20 -385 -20 -395 0 -406 1 -427 60 -6 19
-7 40 -1 54 5 13 137 190 295 392 l286 369 -241 5 c-239 5 -242 5 -261 29 -27
33 -25 86 6 116 l24 25 343 0 c321 0 345 -1 375 -19z"/>
</g>
</svg>
